<svg xmlns="http://www.w3.org/2000/svg" xmlns:xlink="http://www.w3.org/1999/xlink" width="36" height="29" viewBox="0 0 36 29"><defs><path id="gnqea" d="M171.845 845.987c4.022 0 7.421-3.088 7.421-7.355 0-4.603-3.399-7.354-7.421-7.354-1.643 0-3.173.618-4.306 1.516-.227-.674-.34-1.404-.34-2.414 0-4.491 4.079-9.32 8.838-11.284l-1.076-2.077c-8.215 3.817-11.954 10.273-11.954 17.74 0 1.852.34 5.052 1.982 7.579 1.417 2.189 3.456 3.649 6.856 3.649zm19.715 0c4.08 0 7.422-3.088 7.422-7.355 0-4.603-3.342-7.354-7.422-7.354-1.643 0-3.116.618-4.305 1.516-.227-.674-.34-1.404-.34-2.414 0-4.491 4.079-9.32 8.838-11.284l-1.077-2.077c-8.215 3.817-11.954 10.273-11.954 17.74 0 1.852.34 5.052 1.983 7.579 1.417 2.189 3.513 3.649 6.855 3.649z"/></defs><g><g transform="translate(-163 -817)"><use fill="#e9e9e9" xlink:href="#gnqea"/></g></g></svg>